<svg width="197" height="85" viewBox="0 0 197 85" fill="none" xmlns="http://www.w3.org/2000/svg">
<mask id="path-1-outside-1_329_1171" maskUnits="userSpaceOnUse" x="0" y="0" width="197" height="85" fill="black">
<rect fill="white" width="197" height="85"/>
<path d="M184.563 12.1947C186.601 12.9378 187.658 15.1963 186.832 17.2021C179.826 34.1991 168.026 48.8271 152.831 59.2763C136.557 70.4686 117.198 76.3098 97.4489 75.9873C77.6997 75.6648 58.5421 69.1946 42.6415 57.4769C27.7967 46.5372 16.4799 31.5317 10.0331 14.3151C9.2723 12.2833 10.403 10.0605 12.4645 9.38438C14.5259 8.70821 16.7368 9.83518 17.5051 11.8641C23.4378 27.5295 33.7726 41.1818 47.3023 51.1523C61.8879 61.901 79.4612 67.8361 97.5772 68.1319C115.693 68.4278 133.451 63.0696 148.38 52.8029C162.228 43.2795 173.003 29.9718 179.444 14.5085C180.278 12.5058 182.524 11.4516 184.563 12.1947Z"/>
</mask>
<path d="M184.563 12.1947C186.601 12.9378 187.658 15.1963 186.832 17.2021C179.826 34.1991 168.026 48.8271 152.831 59.2763C136.557 70.4686 117.198 76.3098 97.4489 75.9873C77.6997 75.6648 58.5421 69.1946 42.6415 57.4769C27.7967 46.5372 16.4799 31.5317 10.0331 14.3151C9.2723 12.2833 10.403 10.0605 12.4645 9.38438C14.5259 8.70821 16.7368 9.83518 17.5051 11.8641C23.4378 27.5295 33.7726 41.1818 47.3023 51.1523C61.8879 61.901 79.4612 67.8361 97.5772 68.1319C115.693 68.4278 133.451 63.0696 148.38 52.8029C162.228 43.2795 173.003 29.9718 179.444 14.5085C180.278 12.5058 182.524 11.4516 184.563 12.1947Z" fill="#D9D9D9"/>
<path d="M184.563 12.1947C186.601 12.9378 187.658 15.1963 186.832 17.2021C179.826 34.1991 168.026 48.8271 152.831 59.2763C136.557 70.4686 117.198 76.3098 97.4489 75.9873C77.6997 75.6648 58.5421 69.1946 42.6415 57.4769C27.7967 46.5372 16.4799 31.5317 10.0331 14.3151C9.2723 12.2833 10.403 10.0605 12.4645 9.38438C14.5259 8.70821 16.7368 9.83518 17.5051 11.8641C23.4378 27.5295 33.7726 41.1818 47.3023 51.1523C61.8879 61.901 79.4612 67.8361 97.5772 68.1319C115.693 68.4278 133.451 63.0696 148.38 52.8029C162.228 43.2795 173.003 29.9718 179.444 14.5085C180.278 12.5058 182.524 11.4516 184.563 12.1947Z" stroke="#BC2D72" stroke-width="18" mask="url(#path-1-outside-1_329_1171)"/>
</svg>
